<?xml version="1.0" encoding="utf-8"?>
<!-- Generator: Adobe Illustrator 27.0.0, SVG Export Plug-In . SVG Version: 6.00 Build 0)  -->
<svg version="1.1" id="Layer_1" xmlns="http://www.w3.org/2000/svg" xmlns:xlink="http://www.w3.org/1999/xlink" x="0px" y="0px"
	 viewBox="0 0 1200 137.1" style="enable-background:new 0 0 1200 137.1;" xml:space="preserve">
<style type="text/css">
	.st0{fill:#F1CF47;}
	.st1{fill:#FFFFFF;}
	.st2{fill:#211600;}
</style>
<path class="st0" d="M60.1,17.1C60.1,7.7,67.7,0,77.2,0h1061.1c10.4,0,20.3,4.8,26.8,12.9l27.4,34.3c10,12.5,10,30.2,0,42.7
	l-27.4,34.3c-6.5,8.2-16.4,12.9-26.8,12.9H77.2c-9.5,0-17.2-7.7-17.2-17.1V17.1z"/>
<path d="M229.4,37.6c-3-1.2-5.3-1.9-7.3-2.4c-2.5-0.5-5.1-0.8-7.7-0.8c-4.4,0-8.8,0.9-13,2.6c-4.1,1.7-7.8,4-10.9,7
	c-3.1,3-5.7,6.5-7.5,10.6c-1.9,4.1-2.8,8.7-2.8,13.6c0,4.9,1,10.1,2.8,14.3c1.9,4.2,4.5,7.8,7.6,10.8c3.2,3.1,6.8,5.4,10.9,7.1
	c4.1,1.7,8.5,2.5,12.9,2.5c2.1,0,4.3-0.2,6.7-0.7c2.3-0.4,4.7-1.1,7.3-2l1.1-0.4V82.6c-4.2,3.7-8.9,5.6-14,5.6
	c-2.7,0-5.2-0.5-7.5-1.5c-2.3-1-4.4-2.3-6.1-4.1c-1.7-1.7-3.1-3.8-4.1-6.1c-1-2.3-1.5-5.5-1.5-8.3c0-2.8,0.5-5.2,1.5-7.6
	c1-2.3,2.3-4.4,4-6.1c1.7-1.7,3.7-3.1,6.1-4c2.4-1,4.9-1.5,7.7-1.5c5.3,0,10,1.9,13.9,5.7L229.4,37.6L229.4,37.6z"/>
<path d="M367.4,101.7l-21.6-28l1.6-0.3c4.5-1,8-3.1,10.3-6c2.3-2.9,3.5-6.8,3.5-11.6c0-2.9-0.5-6-1.3-8.2c-0.9-2.3-2.2-4.4-3.9-6.1
	c-1.7-1.8-3.9-3.1-6.5-4.2c-2.7-1-5.8-1.6-9.4-1.6h-26.1v66h15.4V72.8l18.9,28.8H367.4z M342.2,63.5c-2,1.5-4.9,2.3-8.5,2.3h-4.3
	V47.5h4.3c3.6,0,6.5,0.8,8.5,2.3c2.1,1.6,3.2,3.9,3.2,6.8C345.3,59.6,344.3,61.9,342.2,63.5L342.2,63.5z"/>
<path d="M412.7,45.5l-8.2,4.8c-1.5-2.6-3-4.3-4.4-5.1c-1.5-0.9-3.3-1.4-5.6-1.4c-2.8,0-5.2,0.8-7,2.4c-1.9,1.5-2.8,3.5-2.8,5.8
	c0,3.2,2.4,5.8,7.3,7.8l6.7,2.7c5.4,2.2,9.4,4.8,12,7.9c2.5,3.1,3.8,6.9,3.8,11.5c0,6.1-2,11.1-6.2,15.1c-4.1,4-9.3,6-15.4,6
	c-5.8,0-10.6-1.7-14.4-5.1c-3.7-3.4-6.1-8.2-7-14.3l10.3-2.2c0.5,3.9,1.3,6.6,2.4,8c2.1,2.8,5.1,4.3,9.1,4.3c3.2,0,5.8-1,7.9-3.1
	c2.1-2.1,3.1-4.7,3.1-7.9c0-1.3-0.2-2.5-0.5-3.5c-0.4-1.1-0.9-2.1-1.7-2.9c-0.8-0.9-1.8-1.7-3-2.5c-1.2-0.8-2.7-1.5-4.4-2.2
	l-6.5-2.6c-9.2-3.8-13.8-9.4-13.8-16.8c0-5,1.9-9.1,5.8-12.4c3.8-3.4,8.6-5.1,14.3-5.1C402.3,34.4,408.3,38.1,412.7,45.5z"/>
<path d="M421.5,68.2c0-9.3,3.5-17.3,10.4-23.9c6.9-6.7,15.2-10,24.9-10c9.6,0,17.8,3.4,24.6,10.1c6.9,6.7,10.3,14.8,10.3,24.2
	c0,9.4-3.4,17.6-10.3,24.2c-6.9,6.6-15.3,10-25.1,10c-8.7,0-16.5-2.9-23.3-8.8C425.4,87.4,421.6,78.8,421.5,68.2L421.5,68.2z
	 M431.8,68.4c0,7.3,2.5,13.3,7.5,18c4.9,4.7,10.7,7.1,17.2,7.1c7,0,13-2.4,17.8-7.2c4.9-4.8,7.3-10.7,7.3-17.7
	c0-7-2.4-12.9-7.2-17.7c-4.8-4.8-10.6-7.2-17.7-7.2c-7,0-12.9,2.4-17.7,7.2C434.2,55.6,431.8,61.5,431.8,68.4L431.8,68.4z"/>
<path d="M616.8,45h-26.9v15.9H616v9.4h-26.1v22.1h26.9v9.4h-37v-66h37V45z"/>
<path d="M287.6,101.7h17.4l-25.5-66h-16.9l-25.5,66h17.4L271,53.8L287.6,101.7z"/>
<path d="M559.2,35.7h-11l-14.8,52.4l-14.8-52.4h-11l-12,66h10l8.1-50.9l15,51.5h9.3l15-51.5l8.1,50.9h10L559.2,35.7z"/>
<path d="M722.6,59.6L708,60.9c-1.8-9.4-8.6-14.4-17.9-14.4c-11.9,0-19.8,8.6-19.8,22.1c0,14.4,8.7,22.1,19.8,22.1
	c9.2,0,16.1-4.9,17.9-14.2l14.7,1.3c-2.6,15.6-15.8,25.1-32.2,25.1c-19.8,0-34.5-12.8-34.5-34.3c0-21.5,14.6-34.3,34.5-34.3
	C706.9,34.3,720.2,43.9,722.6,59.6L722.6,59.6z"/>
<path d="M776.1,35.2v12.1h-29.4v14.4h25.5v11.8h-25.5v16h29.5v12.2h-43.6V35.2H776.1z"/>
<path d="M841.1,101.8h-15.8l-13.2-24h-11.3v24h-14V35.2h29c12.9,0,21.8,7.7,21.8,21.4c0,9.3-4.2,15.9-10.9,19.1L841.1,101.8
	L841.1,101.8z M800.7,65.7H814c5.4,0,9.3-3.2,9.3-9.1c0-5.9-3.9-9.3-9.3-9.3h-13.3V65.7z"/>
<path d="M901.6,35.2v12.1H879v54.5h-14V47.3h-22.6V35.2H901.6z"/>
<path d="M923.9,35.2v66.6h-14V35.2H923.9z"/>
<path d="M980.4,35.2v12.1h-29.4v14.4h24v12.1h-24v28h-14V35.2H980.4z"/>
<path d="M1003.7,35.2v66.6h-14V35.2H1003.7z"/>
<path d="M1060.1,35.2v12.1h-29.4v14.4h25.5v11.8h-25.5v16h29.5v12.2h-43.6V35.2H1060.1z"/>
<path d="M1098.7,35.2c19.3,0,33.6,12.4,33.6,33.3c0,20.9-14.4,33.3-33.7,33.3h-27.8V35.2H1098.7L1098.7,35.2z M1084.8,47v43.1h14
	c11.8,0,19.6-7.2,19.6-21.5s-7.8-21.6-19.6-21.6H1084.8z"/>
<path class="st1" d="M71.4,137.1c39.4,0,71.4-30.7,71.4-68.6c0-37.9-32-68.6-71.4-68.6C32,0,0,30.7,0,68.6
	C0,106.4,32,137.1,71.4,137.1z"/>
<path class="st0" d="M71.4,131.8c-36.3,0-65.8-28.4-65.8-63.3c0-34.9,29.5-63.3,65.8-63.3c36.3,0,65.8,28.4,65.8,63.3
	C137.2,103.5,107.7,131.8,71.4,131.8z M71.4,9.6C37.5,9.6,9.9,36.1,9.9,68.6c0,32.5,27.6,58.9,61.5,58.9s61.5-26.4,61.5-58.9
	C132.9,36.1,105.3,9.6,71.4,9.6z"/>
<path class="st2" d="M118.8,86.5c-0.1-3.9-0.6-10.3-0.6-10.3s0.7-2.6,0.5-7.4c-0.2-4.8-1.2-7.7-2.4-9.2c-1.2-1.5-5.8-6.7-5.8-6.7
	l0.1-0.7c0,0,1.4,0.5,2.9-0.2c1.4-0.6,3.6-2.1,2.4-3.7c-1.2-1.7-2.5-2.1-4.1-2.1s-2.9,1.1-3.1,1.9c-0.3,0.8,0,2.6,0,2.6l-0.2,1
	l-0.9-0.6c0,0-1.4-4.9-3.6-9.1c-2.2-4.3-5.1-9.1-5.2-9.3c-0.1-0.2-0.6-0.8-2.2-1.5c-1.6-0.7-10.6-2.3-23.3-2
	c-12.6,0.3-24.5,0.6-27.1,3.8c0,0-3.1,5-4.4,8c-1.3,2.9-3.8,10.1-3.9,10.2c-0.2,0.1-1,0.9-1,0.9l-0.2-1c0,0,0.5-1.4-0.3-2.9
	c-0.8-1.4-2.9-2-4.6-1.4c-1.7,0.6-2.9,2-2.9,2.8c0,0.8,1,2.7,3.1,3.1c2.1,0.4,2.9,0.4,2.9,0.2c0.1-0.2,0.1,1.3,0.1,1.3
	s-1.5,1.5-3.6,4c-2.1,2.5-4.1,5.1-4.4,8.9c-0.3,3.8,0.3,7.5,0.3,7.5s-0.5,8.8-0.3,12.6c0.2,3.8,0.7,9.7,1.1,11.3
	c0.4,1.5,0.8,4.1,2.7,4.1s7.2,0,7.2,0c1.7,0,1.9-1,1.9-2v-1l0.5-0.1L40,93.8h66.1c0,0-0.4,3.9-0.3,4.1c0.1,0.2,0.6,0.5,0.6,0.5v2
	c0,0-0.1,1.2,1.4,1.2c1.5-0.1,7.8-0.1,8-0.1c0.2,0,1.9-0.2,2.2-2.4C118.3,96.8,118.9,90.4,118.8,86.5L118.8,86.5z M39.3,50.5
	c0,0,6.9-15.8,7.1-16.6c0.2-0.8,2.2-0.7,2.2-0.7c2.2-0.4,19.9-1.1,22.2-1.1c5.2,0,23.2,0.3,25,0.5c1.8,0.2,2.2,0.9,2.2,0.9
	s7.5,14.4,8.4,16.6c0.8,2.2-1,1.2-1,1.2S78,49.3,70.4,49.3c-9.8,0-25,2.2-30.4,2.7C38,52.2,39.3,50.5,39.3,50.5z M37.8,87.2
	c-1.8,0-3.2-1.4-3.2-3.2c0-1.8,1.4-3.2,3.2-3.2c1.8,0,3.2,1.4,3.2,3.2C41,85.8,39.6,87.2,37.8,87.2z M38.1,70.8
	c-2.7,0.2-9.4-0.7-8.1-7.3c1.3-6.5,9.3-7.4,11.6-5.9C50.2,63.4,42.2,70.4,38.1,70.8L38.1,70.8z M96.6,68.8c-1.1,2.2-2.8,3.5-6.2,5
	C87,75.2,78.6,75,73.9,75.1c-3.9,0.1-13.2-0.4-18.2-1c-5-0.6-6.9-4.4-8.3-7.1c-1.4-2.9,2.1-3.2,2.1-3.2s18.8-0.8,22.8-0.9
	c0,0,15.9,0.2,22.6,0.9C98.6,64.2,97.7,66.7,96.6,68.8L96.6,68.8z M108.4,86.9c-1.8,0-3.2-1.4-3.2-3.2c0-1.8,1.4-3.2,3.2-3.2
	c1.8,0,3.2,1.4,3.2,3.2C111.6,85.5,110.2,86.9,108.4,86.9z M106.7,71c-4-0.3-12.1-7.4-3.5-13.2c2.2-1.5,10.2-0.6,11.6,5.9
	S109.4,71.2,106.7,71L106.7,71z"/>
</svg>
